<svg width="26" height="26" viewBox="0 0 26 26" fill="none" xmlns="http://www.w3.org/2000/svg">
<g clip-path="url(#clip0_2_30)">
<path d="M20.4497 12.4291C19.0311 9.13246 17.6917 6.0182 20.0879 0.927686C20.2405 0.602696 20.1014 0.215298 19.7764 0.0623499C19.4514 -0.0905985 19.064 0.0498073 18.9111 0.373883C16.2666 5.99392 17.7857 9.52631 19.2551 12.943C19.3179 13.0886 19.3794 13.2337 19.4419 13.3793C18.3291 14.2364 15.9467 14.9501 12.9998 14.9501C10.0507 14.9501 7.67047 14.2356 6.5586 13.3776C6.62055 13.2329 6.6821 13.0886 6.7445 12.943C8.21386 9.52631 9.73263 5.99392 7.08854 0.373883C6.93513 0.0493503 6.54819 -0.0915125 6.2232 0.0623499C5.89821 0.215298 5.75912 0.602696 5.91167 0.927686C8.30791 6.01825 6.96854 9.13246 5.55072 12.4291C4.01332 16.0043 2.42351 19.7014 5.93985 25.6793C6.06116 25.8856 6.27824 26 6.50096 26C6.61278 26 6.72627 25.9714 6.82986 25.9103C7.13967 25.7283 7.2424 25.3297 7.06081 25.0203C5.06583 21.6283 4.86911 19.0904 5.36309 16.8242C9.11774 17.875 11.8212 21.5352 12.3503 22.3V25.3497C12.3503 25.7089 12.641 25.9996 13.0003 25.9996C13.3595 25.9996 13.6502 25.7089 13.6502 25.3497V22.2987C14.1983 21.5075 16.8923 17.8668 20.6366 16.8208C21.1309 19.0883 20.9355 21.6266 18.9397 25.0204C18.7582 25.3293 18.8608 25.728 19.1706 25.9104C19.2742 25.9715 19.3877 26 19.4995 26C19.7223 26 19.9393 25.8856 20.0607 25.6794C23.5769 19.7014 21.9871 16.0048 20.4497 12.4291ZM12.9998 20.9818C11.9187 19.5567 9.29369 16.5681 5.70799 15.5702C5.81331 15.2483 5.9303 14.9302 6.05289 14.6135C7.54956 15.6148 10.0454 16.2501 13.0002 16.2501C15.9515 16.2501 18.4508 15.6183 19.9497 14.6196C20.0714 14.9341 20.1876 15.2504 20.292 15.5703C16.7059 16.5681 14.0809 19.5567 12.9998 20.9818Z" fill="black"/>
<path d="M12.9993 12.3498C13.3583 12.3498 13.6493 12.0588 13.6493 11.6998C13.6493 11.3409 13.3583 11.0499 12.9993 11.0499C12.6404 11.0499 12.3494 11.3409 12.3494 11.6998C12.3494 12.0588 12.6404 12.3498 12.9993 12.3498Z" fill="black"/>
<path d="M5.65949 7.34116L3.70961 5.39128C3.45571 5.13738 3.04449 5.13738 2.79055 5.39128C2.53665 5.64517 2.53665 6.05639 2.79055 6.31034L3.63075 7.15054H0.650386C0.291171 7.15054 0.000406265 7.4413 0.000406265 7.80052C0.000406265 8.15973 0.291171 8.4505 0.650386 8.4505H3.63115L2.79055 9.2911C2.53665 9.545 2.53665 9.95621 2.79055 10.2102C2.91749 10.3371 3.0839 10.4004 3.2503 10.4004C3.41671 10.4004 3.58306 10.3371 3.71006 10.2102L5.65995 8.26028C5.91339 8.00628 5.91339 7.59506 5.65949 7.34116Z" fill="black"/>
<path d="M25.3492 7.15049H22.3684L23.2086 6.31029C23.4625 6.05639 23.4625 5.64518 23.2086 5.39123C22.9547 5.13733 22.5435 5.13733 22.2896 5.39123L20.3397 7.34112C20.0858 7.59502 20.0858 8.00623 20.3397 8.26018L22.2896 10.2101C22.4165 10.337 22.5829 10.4003 22.7493 10.4003C22.9157 10.4003 23.0821 10.337 23.2091 10.2101C23.463 9.95617 23.463 9.54495 23.2091 9.29101L22.3689 8.45081H25.3497C25.7089 8.45081 25.9996 8.16004 25.9996 7.80083C25.9996 7.44161 25.7084 7.15049 25.3492 7.15049Z" fill="black"/>
</g>
<defs>
<clipPath id="clip0_2_30">
<rect width="26" height="26" fill="white"/>
</clipPath>
</defs>
</svg>
