<svg width="41" height="22" viewBox="0 0 41 22" fill="none" xmlns="http://www.w3.org/2000/svg">
<path d="M0.094699 9.08492C0.234035 9.34525 0.50542 9.50781 0.800748 9.50781H4.80465V21.1992C4.80465 21.6414 5.16316 22 5.60543 22H35.3945C35.8368 22 36.1953 21.6414 36.1953 21.1992V9.50781H40.1992C40.4945 9.50781 40.7659 9.34525 40.9052 9.08492C41.0446 8.82451 41.0293 8.5086 40.8654 8.26284L36.0607 1.05581C35.9123 0.83303 35.6622 0.699219 35.3945 0.699219H32.3515C31.9093 0.699219 31.5507 1.05773 31.5507 1.5C31.5507 1.94227 31.9093 2.30078 32.3515 2.30078H34.9659L38.7029 7.90625H25.7332L21.9962 2.30078H25.1445C25.5868 2.30078 25.9453 1.94227 25.9453 1.5C25.9453 1.05773 25.5868 0.699219 25.1445 0.699219C24.23 0.699219 6.49046 0.699219 5.60543 0.699219C5.33765 0.699219 5.08765 0.83303 4.93919 1.05581L0.134498 8.26284C-0.029342 8.5086 -0.0446369 8.82451 0.094699 9.08492ZM6.40622 9.50781H15.6953C15.9631 9.50781 16.2131 9.374 16.3615 9.15122L19.6992 4.14474V20.3984H6.40622V9.50781ZM24.6384 9.15122C24.7869 9.374 25.037 9.50781 25.3047 9.50781H34.5937V20.3984H21.3007V4.14474L24.6384 9.15122ZM6.03401 2.30078H19.0037L15.2667 7.90625H2.29701L6.03401 2.30078Z" fill="black"/>
<path d="M28.748 2.30078C29.1903 2.30078 29.5488 1.94226 29.5488 1.5C29.5488 1.05774 29.1903 0.699219 28.748 0.699219C28.3058 0.699219 27.9473 1.05774 27.9473 1.5C27.9473 1.94226 28.3058 2.30078 28.748 2.30078Z" fill="black"/>
</svg>
